<svg version="1.1" xmlns="http://www.w3.org/2000/svg" xmlns:xlink="http://www.w3.org/1999/xlink" width="723" height="580"><defs></defs><g><g transform="translate(-70,-22) scale(1,1)"><rect fill="#C0C0C0" stroke="none" x="223" y="39" width="567" height="560" opacity="0.2"></rect></g><g transform="translate(-70,-22) scale(1,1)"><rect fill="#ffffff" stroke="none" x="216" y="32" width="567" height="560"></rect></g><g transform="translate(-70,-22) scale(1,1)"><path fill="none" stroke="#000000" d="M 216 32 L 783 32 L 783 592 L 216 592 L 216 32 Z Z" stroke-miterlimit="10"></path></g><g transform="translate(-70,-22) scale(1,1)"><g><path fill="none" stroke="none"></path><text fill="#000000" stroke="none" font-family="Arial" font-size="13px" font-style="normal" font-weight="bold" text-decoration="none" x="486" y="51.5">PDV</text></g></g><g transform="translate(-70,-22) scale(1,1)"><path fill="#ffffff" stroke="none" d="M 109.32072727272728 297.68 C 109.32072727272728 292.886167936 113.20656959767274 289 118 289 C 122.79343040232726 289 126.67927272727272 292.886167936 126.67927272727272 297.68 C 126.67927272727272 302.473832064 122.79343040232726 306.36 118 306.36 C 113.20656959767274 306.36 109.32072727272728 302.473832064 109.32072727272728 297.68 Z"></path></g><g transform="translate(-70,-22) scale(1,1)"><path fill="none" stroke="#000000" d="M 109.32072727272728 297.68 C 109.32072727272728 292.886167936 113.20656959767274 289 118 289 C 122.79343040232726 289 126.67927272727272 292.886167936 126.67927272727272 297.68 C 126.67927272727272 302.473832064 122.79343040232726 306.36 118 306.36 C 113.20656959767274 306.36 109.32072727272728 302.473832064 109.32072727272728 297.68 Z" stroke-miterlimit="10"></path></g><g transform="translate(-70,-22) scale(1,1)"><path fill="none" stroke="#000000" d="M 118 306.36 L 118 323.64" stroke-miterlimit="10"></path></g><g transform="translate(-70,-22) scale(1,1)"><path fill="none" stroke="#000000" d="M 108.81018181818183 312.84 L 127.18981818181817 312.84" stroke-miterlimit="10"></path></g><g transform="translate(-70,-22) scale(1,1)"><path fill="none" stroke="#000000" d="M 118 323.64 L 105.23636363636365 341" stroke-miterlimit="10"></path></g><g transform="translate(-70,-22) scale(1,1)"><path fill="none" stroke="#000000" d="M 118 323.64 L 130.76363636363635 341" stroke-miterlimit="10"></path></g><g transform="translate(-70,-22) scale(1,1)"><g><path fill="none" stroke="none"></path><text fill="#000000" stroke="none" font-family="Arial" font-size="13px" font-style="normal" font-weight="bold" text-decoration="none" x="88.5" y="361.5">Atendente</text></g></g><g transform="translate(-70,-22) scale(1,1)"><path fill="#C0C0C0" stroke="none" d="M 287 249.5 C 287 230.4461744 329.9806592 215 383 215 C 436.0193408 215 479 230.4461744 479 249.5 C 479 268.5538256 436.0193408 284 383 284 C 329.9806592 284 287 268.5538256 287 249.5 Z" opacity="0.2"></path></g><g transform="translate(-70,-22) scale(1,1)"><path fill="#ffffff" stroke="none" d="M 280 242.5 C 280 223.4461744 322.9806592 208 376 208 C 429.0193408 208 472 223.4461744 472 242.5 C 472 261.5538256 429.0193408 277 376 277 C 322.9806592 277 280 261.5538256 280 242.5 Z"></path></g><g transform="translate(-70,-22) scale(1,1)"><path fill="none" stroke="#000000" d="M 280 242.5 C 280 223.4461744 322.9806592 208 376 208 C 429.0193408 208 472 223.4461744 472 242.5 C 472 261.5538256 429.0193408 277 376 277 C 322.9806592 277 280 261.5538256 280 242.5 Z" stroke-miterlimit="10"></path></g><g transform="translate(-70,-22) scale(1,1)"><path fill="none" stroke="#000000" d="M 280 282 L 472 282" stroke-miterlimit="10"></path></g><g transform="translate(-70,-22) scale(1,1)"><g><path fill="none" stroke="none"></path><text fill="#000000" stroke="none" font-family="Arial" font-size="13px" font-style="normal" font-weight="bold" text-decoration="none" x="329.5" y="252">Registrar Venda</text></g></g><g transform="translate(-70,-22) scale(1,1)"><g><path fill="none" stroke="none"></path><text fill="#000000" stroke="none" font-family="Arial" font-size="13px" font-style="normal" font-weight="normal" text-decoration="none" x="285" y="299.5">Pagamento com Cartão</text></g></g><g transform="translate(-70,-22) scale(1,1)"><g><path fill="none" stroke="none"></path><text fill="#000000" stroke="none" font-family="Arial" font-size="13px" font-style="normal" font-weight="normal" text-decoration="none" x="285" y="314.5">Pagamento com dinheiro</text></g></g><g transform="translate(-70,-22) scale(1,1)"><path fill="#C0C0C0" stroke="none" d="M 287 115 C 287 95.1177472 329.9806592 79 383 79 C 436.0193408 79 479 95.1177472 479 115 C 479 134.8822528 436.0193408 151 383 151 C 329.9806592 151 287 134.8822528 287 115 Z" opacity="0.2"></path></g><g transform="translate(-70,-22) scale(1,1)"><path fill="#ffffff" stroke="none" d="M 280 108 C 280 88.1177472 322.9806592 72 376 72 C 429.0193408 72 472 88.1177472 472 108 C 472 127.8822528 429.0193408 144 376 144 C 322.9806592 144 280 127.8822528 280 108 Z"></path></g><g transform="translate(-70,-22) scale(1,1)"><path fill="none" stroke="#000000" d="M 280 108 C 280 88.1177472 322.9806592 72 376 72 C 429.0193408 72 472 88.1177472 472 108 C 472 127.8822528 429.0193408 144 376 144 C 322.9806592 144 280 127.8822528 280 108 Z" stroke-miterlimit="10"></path></g><g transform="translate(-70,-22) scale(1,1)"><g><path fill="none" stroke="none"></path><text fill="#000000" stroke="none" font-family="Arial" font-size="13px" font-style="normal" font-weight="bold" text-decoration="none" x="341" y="108.5">Conectar ao</text><text fill="#000000" stroke="none" font-family="Arial" font-size="13px" font-style="normal" font-weight="bold" text-decoration="none" x="352" y="121.5">Sistema</text></g></g><g transform="translate(-70,-22) scale(1,1)"><path fill="none" stroke="#000000" d="M 376 207 L 376 145" stroke-miterlimit="10" stroke-dasharray="3"></path></g><g transform="translate(-70,-22) scale(1,1)"><path fill="none" stroke="#000000" d="M 380.209517756016 155.16267485762415 L 376 145 L 371.790482243984 155.16267485762415" stroke-miterlimit="10"></path></g><g transform="translate(-70,-22) scale(1,1)"><g><path fill="none" stroke="none"></path><text fill="#000000" stroke="none" font-family="Arial" font-size="13px" font-style="normal" font-weight="normal" text-decoration="none" x="319" y="182">«include»</text></g></g><g transform="translate(-70,-22) scale(1,1)"><path fill="#C0C0C0" stroke="none" d="M 543 267 C 543 247.1177472 585.9806592 231 639 231 C 692.0193408 231 735 247.1177472 735 267 C 735 286.8822528 692.0193408 303 639 303 C 585.9806592 303 543 286.8822528 543 267 Z" opacity="0.2"></path></g><g transform="translate(-70,-22) scale(1,1)"><path fill="#ffffff" stroke="none" d="M 536 260 C 536 240.1177472 578.9806592 224 632 224 C 685.0193408 224 728 240.1177472 728 260 C 728 279.8822528 685.0193408 296 632 296 C 578.9806592 296 536 279.8822528 536 260 Z"></path></g><g transform="translate(-70,-22) scale(1,1)"><path fill="none" stroke="#000000" d="M 536 260 C 536 240.1177472 578.9806592 224 632 224 C 685.0193408 224 728 240.1177472 728 260 C 728 279.8822528 685.0193408 296 632 296 C 578.9806592 296 536 279.8822528 536 260 Z" stroke-miterlimit="10"></path></g><g transform="translate(-70,-22) scale(1,1)"><g><path fill="none" stroke="none"></path><text fill="#000000" stroke="none" font-family="Arial" font-size="13px" font-style="normal" font-weight="bold" text-decoration="none" x="581.5" y="267">Reportar Estoque</text></g></g><g transform="translate(-70,-22) scale(1,1)"><path fill="none" stroke="#000000" d="M 473 262 L 535 262" stroke-miterlimit="10" stroke-dasharray="3"></path></g><g transform="translate(-70,-22) scale(1,1)"><path fill="none" stroke="#000000" d="M 524.8373251423759 266.209517756016 L 535 262 L 524.8373251423758 257.790482243984" stroke-miterlimit="10"></path></g><g transform="translate(-70,-22) scale(1,1)"><g><path fill="none" stroke="none"></path><text fill="#000000" stroke="none" font-family="Arial" font-size="13px" font-style="normal" font-weight="normal" text-decoration="none" x="477" y="239">«include»</text></g></g><g transform="translate(-70,-22) scale(1,1)"><path fill="#C0C0C0" stroke="none" d="M 279 419 C 279 399.1177472 323.77152 383 379 383 C 434.22848 383 479 399.1177472 479 419 C 479 438.8822528 434.22848 455 379 455 C 323.77152 455 279 438.8822528 279 419 Z" opacity="0.2"></path></g><g transform="translate(-70,-22) scale(1,1)"><path fill="#ffffff" stroke="none" d="M 272 412 C 272 392.1177472 316.77152 376 372 376 C 427.22848 376 472 392.1177472 472 412 C 472 431.8822528 427.22848 448 372 448 C 316.77152 448 272 431.8822528 272 412 Z"></path></g><g transform="translate(-70,-22) scale(1,1)"><path fill="none" stroke="#000000" d="M 272 412 C 272 392.1177472 316.77152 376 372 376 C 427.22848 376 472 392.1177472 472 412 C 472 431.8822528 427.22848 448 372 448 C 316.77152 448 272 431.8822528 272 412 Z" stroke-miterlimit="10"></path></g><g transform="translate(-70,-22) scale(1,1)"><g><path fill="none" stroke="none"></path><text fill="#000000" stroke="none" font-family="Arial" font-size="13px" font-style="normal" font-weight="bold" text-decoration="none" x="318.5" y="419">Pagar Com Cartão</text></g></g><g transform="translate(-70,-22) scale(1,1)"><path fill="none" stroke="#000000" d="M 373 375 L 374 321" stroke-miterlimit="10" stroke-dasharray="3"></path></g><g transform="translate(-70,-22) scale(1,1)"><path fill="none" stroke="#000000" d="M 378.02063072400256 331.23887340390564 L 374 321 L 369.6030384339769 331.0829920652015" stroke-miterlimit="10"></path></g><g transform="translate(-70,-22) scale(1,1)"><g><path fill="none" stroke="none"></path><text fill="#000000" stroke="none" font-family="Arial" font-size="13px" font-style="normal" font-weight="normal" text-decoration="none" x="317" y="353">«extend»</text></g></g><g transform="translate(-70,-22) scale(1,1)"><path fill="#C0C0C0" stroke="none" d="M 543 379 C 543 359.1177472 585.9806592 343 639 343 C 692.0193408 343 735 359.1177472 735 379 C 735 398.8822528 692.0193408 415 639 415 C 585.9806592 415 543 398.8822528 543 379 Z" opacity="0.2"></path></g><g transform="translate(-70,-22) scale(1,1)"><path fill="#ffffff" stroke="none" d="M 536 372 C 536 352.1177472 578.9806592 336 632 336 C 685.0193408 336 728 352.1177472 728 372 C 728 391.8822528 685.0193408 408 632 408 C 578.9806592 408 536 391.8822528 536 372 Z"></path></g><g transform="translate(-70,-22) scale(1,1)"><path fill="none" stroke="#000000" d="M 536 372 C 536 352.1177472 578.9806592 336 632 336 C 685.0193408 336 728 352.1177472 728 372 C 728 391.8822528 685.0193408 408 632 408 C 578.9806592 408 536 391.8822528 536 372 Z" stroke-miterlimit="10"></path></g><g transform="translate(-70,-22) scale(1,1)"><g><path fill="none" stroke="none"></path><text fill="#000000" stroke="none" font-family="Arial" font-size="13px" font-style="normal" font-weight="bold" text-decoration="none" x="575" y="379">Pagar com Dinheiro</text></g></g><g transform="translate(-70,-22) scale(1,1)"><path fill="none" stroke="#000000" d="M 544 335 L 473 305" stroke-miterlimit="10" stroke-dasharray="3"></path></g><g transform="translate(-70,-22) scale(1,1)"><path fill="none" stroke="#000000" d="M 483.99972414888214 305.07790153078963 L 473 305 L 480.7228948361698 312.83306423754215" stroke-miterlimit="10"></path></g><g transform="translate(-70,-22) scale(1,1)"><g><path fill="none" stroke="none"></path><text fill="#000000" stroke="none" font-family="Arial" font-size="13px" font-style="normal" font-weight="normal" text-decoration="none" x="470" y="354">«extend»</text></g></g><g transform="translate(-70,-22) scale(1,1)"><path fill="none" stroke="#000000" d="M 157 317 L 279 288" stroke-miterlimit="10"></path></g><g transform="translate(-70,-22) scale(1,1)"><path fill="#C0C0C0" stroke="none" d="M 311 531 C 311 511.1177472 355.77152 495 411 495 C 466.22848 495 511 511.1177472 511 531 C 511 550.8822528 466.22848 567 411 567 C 355.77152 567 311 550.8822528 311 531 Z" opacity="0.2"></path></g><g transform="translate(-70,-22) scale(1,1)"><path fill="#ffffff" stroke="none" d="M 304 524 C 304 504.1177472 348.77152 488 404 488 C 459.22848 488 504 504.1177472 504 524 C 504 543.8822528 459.22848 560 404 560 C 348.77152 560 304 543.8822528 304 524 Z"></path></g><g transform="translate(-70,-22) scale(1,1)"><path fill="none" stroke="#000000" d="M 304 524 C 304 504.1177472 348.77152 488 404 488 C 459.22848 488 504 504.1177472 504 524 C 504 543.8822528 459.22848 560 404 560 C 348.77152 560 304 543.8822528 304 524 Z" stroke-miterlimit="10"></path></g><g transform="translate(-70,-22) scale(1,1)"><g><path fill="none" stroke="none"></path><text fill="#000000" stroke="none" font-family="Arial" font-size="13px" font-style="normal" font-weight="bold" text-decoration="none" x="352.5" y="524.5">Emitir Balanço do</text><text fill="#000000" stroke="none" font-family="Arial" font-size="13px" font-style="normal" font-weight="bold" text-decoration="none" x="380" y="537.5">Estoque</text></g></g><g transform="translate(-70,-22) scale(1,1)"><path fill="#ffffff" stroke="none" d="M 105.82072727272727 473.68 C 105.82072727272727 468.886167936 109.70656959767273 465 114.5 465 C 119.29343040232727 465 123.17927272727273 468.886167936 123.17927272727273 473.68 C 123.17927272727273 478.473832064 119.29343040232727 482.36 114.5 482.36 C 109.70656959767273 482.36 105.82072727272727 478.473832064 105.82072727272727 473.68 Z"></path></g><g transform="translate(-70,-22) scale(1,1)"><path fill="none" stroke="#000000" d="M 105.82072727272727 473.68 C 105.82072727272727 468.886167936 109.70656959767273 465 114.5 465 C 119.29343040232727 465 123.17927272727273 468.886167936 123.17927272727273 473.68 C 123.17927272727273 478.473832064 119.29343040232727 482.36 114.5 482.36 C 109.70656959767273 482.36 105.82072727272727 478.473832064 105.82072727272727 473.68 Z" stroke-miterlimit="10"></path></g><g transform="translate(-70,-22) scale(1,1)"><path fill="none" stroke="#000000" d="M 114.5 482.36 L 114.5 499.64" stroke-miterlimit="10"></path></g><g transform="translate(-70,-22) scale(1,1)"><path fill="none" stroke="#000000" d="M 105.31018181818182 488.84 L 123.68981818181818 488.84" stroke-miterlimit="10"></path></g><g transform="translate(-70,-22) scale(1,1)"><path fill="none" stroke="#000000" d="M 114.5 499.64 L 101.73636363636363 517" stroke-miterlimit="10"></path></g><g transform="translate(-70,-22) scale(1,1)"><path fill="none" stroke="#000000" d="M 114.5 499.64 L 127.26363636363637 517" stroke-miterlimit="10"></path></g><g transform="translate(-70,-22) scale(1,1)"><g><path fill="none" stroke="none"></path><text fill="#000000" stroke="none" font-family="Arial" font-size="13px" font-style="normal" font-weight="bold" text-decoration="none" x="95" y="537.5">Tempo</text></g></g><g transform="translate(-70,-22) scale(1,1)"><path fill="none" stroke="#000000" d="M 142 505 L 303 517" stroke-miterlimit="10"></path></g></g></svg>